<svg version="1.1" xmlns="http://www.w3.org/2000/svg" xmlns:xlink="http://www.w3.org/1999/xlink" width="5000" height="5000"><g fill="none" fill-rule="nonzero" stroke="#000000" stroke-width="1" stroke-linecap="butt" stroke-linejoin="miter" stroke-miterlimit="10" stroke-dasharray="none" stroke-dashoffset="0" font-family="none" font-weight="none" font-size="none" text-anchor="none" style="mix-blend-mode: normal"><path d="M199.86251,100l0,200" stroke-dasharray="2,10"></path><path d="M159.93125,140l0,-6" stroke-dasharray=""></path><path d="M139.93125,140l0,-6" stroke-dasharray=""></path><path d="M139.93125,134l20,0" stroke-dasharray=""></path><path d="M309.75177,100l0,200" stroke-dasharray="2,10"></path><path d="M264.80714,140l0,-6" stroke-dasharray=""></path><path d="M244.80714,140l0,-6" stroke-dasharray=""></path><path d="M244.80714,134l20,0" stroke-dasharray=""></path><path d="M337.34669,100l0,200" stroke-dasharray="2,10"></path><path d="M398.46052,100l0,200" stroke-dasharray="2,10"></path><path d="M455.01368,100l0,200" stroke-dasharray="2,10"></path><path d="M691.1154,100l0,200" stroke-dasharray="2,10"></path><path d="M583.06454,140l0,-6" stroke-dasharray=""></path><path d="M563.06454,140l0,-6" stroke-dasharray=""></path><path d="M563.06454,134l20,0" stroke-dasharray=""></path><path d="M765.17787,100l0,200" stroke-dasharray="2,10"></path><path d="M783.45053,100l0,200" stroke-dasharray="2,10"></path><path d="M898.61971,100l0,200" stroke-dasharray="2,10"></path><path d="M851.03512,140l0,-6" stroke-dasharray=""></path><path d="M831.03512,140l0,-6" stroke-dasharray=""></path><path d="M831.03512,134l20,0" stroke-dasharray=""></path><path d="M1005.86755,100l0,200" stroke-dasharray="2,10"></path><path d="M962.24363,140l0,-6" stroke-dasharray=""></path><path d="M942.24363,140l0,-6" stroke-dasharray=""></path><path d="M942.24363,134l20,0" stroke-dasharray=""></path><path d="M1051.75873,100l0,200" stroke-dasharray="2,10"></path><path d="M1099.24304,100l0,200" stroke-dasharray="2,10"></path><path d="M1147.92949,100l0,200" stroke-dasharray="2,10"></path><path d="M1250.77039,100l0,200" stroke-dasharray="2,10"></path><path d="M1209.34994,140l0,-6" stroke-dasharray=""></path><path d="M1189.34994,140l0,-6" stroke-dasharray=""></path><path d="M1189.34994,134l20,0" stroke-dasharray=""></path><path d="M1287.07975,100l0,200" stroke-dasharray="2,10"></path><path d="M1383.90547,100l0,200" stroke-dasharray="2,10"></path><path d="M1345.49261,140l0,-6" stroke-dasharray=""></path><path d="M1325.49261,140l0,-6" stroke-dasharray=""></path><path d="M1325.49261,134l20,0" stroke-dasharray=""></path><path d="M1483.90547,100l0,200" stroke-dasharray="2,10"></path><path d="M100,100l1383.90547,0l25,25l0,150l-25,25l-1383.90547,0l0,-200" stroke-dasharray=""></path></g></svg>