<?xml version="1.0" encoding="utf-8"?>
<!-- Generator: Adobe Illustrator 18.0.0, SVG Export Plug-In . SVG Version: 6.00 Build 0)  -->
<!DOCTYPE svg PUBLIC "-//W3C//DTD SVG 1.1//EN" "http://www.w3.org/Graphics/SVG/1.1/DTD/svg11.dtd">
<svg version="1.1" id="Layer_1" xmlns="http://www.w3.org/2000/svg" xmlns:xlink="http://www.w3.org/1999/xlink" x="0px" y="0px"
	 viewBox="0 0 841.9 595.3" enable-background="new 0 0 841.9 595.3" xml:space="preserve">
<g>
	<g>
		<path fill="none" stroke="#2B4B9B" stroke-miterlimit="10" stroke-dasharray="2,10" d="M120.7,193.1v175.1"/>
		<path fill="none" stroke="#2B4B9B" stroke-miterlimit="10" d="M75.8,279.6v-4.1"/>
		<path fill="none" stroke="#2B4B9B" stroke-miterlimit="10" d="M62.3,279.6v-4.1"/>
		<path fill="none" stroke="#2B4B9B" stroke-miterlimit="10" d="M62.3,275.5h13.6"/>
		<path fill="none" stroke="#2B4B9B" stroke-miterlimit="10" stroke-dasharray="2,10" d="M173.8,193.1v175.1"/>
		<path fill="none" stroke="#2B4B9B" stroke-miterlimit="10" d="M154,279.6v-4.1"/>
		<path fill="none" stroke="#2B4B9B" stroke-miterlimit="10" d="M140.4,279.6v-4.1"/>
		<path fill="none" stroke="#2B4B9B" stroke-miterlimit="10" d="M140.4,275.5H154"/>
		<path fill="none" stroke="#2B4B9B" stroke-miterlimit="10" stroke-dasharray="2,10" d="M221.8,193.1v175.1"/>
		<path fill="none" stroke="#2B4B9B" stroke-miterlimit="10" d="M204.5,279.6v-4.1"/>
		<path fill="none" stroke="#2B4B9B" stroke-miterlimit="10" d="M191,279.6v-4.1"/>
		<path fill="none" stroke="#2B4B9B" stroke-miterlimit="10" d="M191,275.5h13.6"/>
		<path fill="none" stroke="#2B4B9B" stroke-miterlimit="10" stroke-dasharray="2,10" d="M239.9,193.1v175.1"/>
		<path fill="none" stroke="#2B4B9B" stroke-miterlimit="10" stroke-dasharray="2,10" d="M289.3,193.1v175.1"/>
		<path fill="none" stroke="#2B4B9B" stroke-miterlimit="10" d="M271.4,279.6v-4.1"/>
		<path fill="none" stroke="#2B4B9B" stroke-miterlimit="10" d="M257.8,279.6v-4.1"/>
		<path fill="none" stroke="#2B4B9B" stroke-miterlimit="10" d="M257.8,275.5h13.6"/>
		<path fill="none" stroke="#2B4B9B" stroke-miterlimit="10" stroke-dasharray="2,10" d="M438.8,193.1v175.1"/>
		<path fill="none" stroke="#2B4B9B" stroke-miterlimit="10" d="M370.8,279.6v-4.1"/>
		<path fill="none" stroke="#2B4B9B" stroke-miterlimit="10" d="M357.3,279.6v-4.1"/>
		<path fill="none" stroke="#2B4B9B" stroke-miterlimit="10" d="M357.3,275.5h13.6"/>
		<path fill="none" stroke="#2B4B9B" stroke-miterlimit="10" stroke-dasharray="2,10" d="M484,193.1v175.1"/>
		<path fill="none" stroke="#2B4B9B" stroke-miterlimit="10" d="M468.2,279.6v-4.1"/>
		<path fill="none" stroke="#2B4B9B" stroke-miterlimit="10" d="M454.6,279.6v-4.1"/>
		<path fill="none" stroke="#2B4B9B" stroke-miterlimit="10" d="M454.6,275.5h13.6"/>
		<path fill="none" stroke="#2B4B9B" stroke-miterlimit="10" stroke-dasharray="2,10" d="M508.2,193.1v175.1"/>
		<path fill="none" stroke="#2B4B9B" stroke-miterlimit="10" stroke-dasharray="2,10" d="M541.3,193.1v175.1"/>
		<path fill="none" stroke="#2B4B9B" stroke-miterlimit="10" stroke-dasharray="2,10" d="M610.1,193.1v175.1"/>
		<path fill="none" stroke="#2B4B9B" stroke-miterlimit="10" d="M582.5,279.6v-4.1"/>
		<path fill="none" stroke="#2B4B9B" stroke-miterlimit="10" d="M568.9,279.6v-4.1"/>
		<path fill="none" stroke="#2B4B9B" stroke-miterlimit="10" d="M568.9,275.5h13.6"/>
		<path fill="none" stroke="#2B4B9B" stroke-miterlimit="10" stroke-dasharray="2,10" d="M697,193.1v175.1"/>
		<path fill="none" stroke="#2B4B9B" stroke-miterlimit="10" d="M660.3,279.6v-4.1"/>
		<path fill="none" stroke="#2B4B9B" stroke-miterlimit="10" d="M646.8,279.6v-4.1"/>
		<path fill="none" stroke="#2B4B9B" stroke-miterlimit="10" d="M646.8,275.5h13.6"/>
		<path fill="none" stroke="#2B4B9B" stroke-miterlimit="10" stroke-dasharray="2,10" d="M764.8,193.1v175.1"/>
		<path fill="none" stroke="#2B4B9B" stroke-miterlimit="10" d="M17.4,193.1h747.4l17,17v141.2l-17,17H17.4V193.1"/>
	</g>
</g>
<g>
	<g>
		<path fill="none" stroke="#2B4B9B" stroke-miterlimit="10" stroke-dasharray="2,10" d="M79,25.2v143.3"/>
		<path fill="none" stroke="#2B4B9B" stroke-miterlimit="10" d="M56.2,145.2v-4.1"/>
		<path fill="none" stroke="#2B4B9B" stroke-miterlimit="10" d="M42.6,145.2v-4.1"/>
		<path fill="none" stroke="#2B4B9B" stroke-miterlimit="10" d="M42.6,141.1h13.6"/>
		<path fill="none" stroke="#2B4B9B" stroke-miterlimit="10" stroke-dasharray="2,10" d="M103.2,25.2v143.3"/>
		<path fill="none" stroke="#2B4B9B" stroke-miterlimit="10" stroke-dasharray="2,10" d="M137.9,25.2v143.3"/>
		<path fill="none" stroke="#2B4B9B" stroke-miterlimit="10" stroke-dasharray="2,10" d="M157.5,25.2v143.3"/>
		<path fill="none" stroke="#2B4B9B" stroke-miterlimit="10" stroke-dasharray="2,10" d="M183,25.2v143.3"/>
		<path fill="none" stroke="#2B4B9B" stroke-miterlimit="10" stroke-dasharray="2,10" d="M278.4,25.2v143.3"/>
		<path fill="none" stroke="#2B4B9B" stroke-miterlimit="10" d="M237.5,145.2v-4.1"/>
		<path fill="none" stroke="#2B4B9B" stroke-miterlimit="10" d="M223.9,145.2v-4.1"/>
		<path fill="none" stroke="#2B4B9B" stroke-miterlimit="10" d="M223.9,141.1h13.6"/>
		<path fill="none" stroke="#2B4B9B" stroke-miterlimit="10" stroke-dasharray="2,10" d="M380.9,25.2v143.3"/>
		<path fill="none" stroke="#2B4B9B" stroke-miterlimit="10" d="M336.4,145.2v-4.1"/>
		<path fill="none" stroke="#2B4B9B" stroke-miterlimit="10" d="M322.9,145.2v-4.1"/>
		<path fill="none" stroke="#2B4B9B" stroke-miterlimit="10" d="M322.9,141.1h13.6"/>
		<path fill="none" stroke="#2B4B9B" stroke-miterlimit="10" stroke-dasharray="2,10" d="M422.8,25.2v143.3"/>
		<path fill="none" stroke="#2B4B9B" stroke-miterlimit="10" d="M408.6,145.2v-4.1"/>
		<path fill="none" stroke="#2B4B9B" stroke-miterlimit="10" d="M395.1,145.2v-4.1"/>
		<path fill="none" stroke="#2B4B9B" stroke-miterlimit="10" d="M395.1,141.1h13.6"/>
		<path fill="none" stroke="#2B4B9B" stroke-miterlimit="10" stroke-dasharray="2,10" d="M452.8,25.2v143.3"/>
		<path fill="none" stroke="#2B4B9B" stroke-miterlimit="10" stroke-dasharray="2,10" d="M527.5,25.2v143.3"/>
		<path fill="none" stroke="#2B4B9B" stroke-miterlimit="10" d="M496.9,145.2v-4.1"/>
		<path fill="none" stroke="#2B4B9B" stroke-miterlimit="10" d="M483.4,145.2v-4.1"/>
		<path fill="none" stroke="#2B4B9B" stroke-miterlimit="10" d="M483.4,141.1h13.6"/>
		<path fill="none" stroke="#2B4B9B" stroke-miterlimit="10" stroke-dasharray="2,10" d="M595.3,25.2v143.3"/>
		<path fill="none" stroke="#2B4B9B" stroke-miterlimit="10" d="M19.8,25.2h575.5l17,17v109.4l-17,17H19.8V25.2"/>
	</g>
</g>
<g>
	<g>
		<path fill="none" stroke="#2B4B9B" stroke-miterlimit="10" stroke-dasharray="2,10" d="M77.8,403.2V558"/>
		<path fill="none" stroke="#2B4B9B" stroke-miterlimit="10" d="M59.3,515.1V511"/>
		<path fill="none" stroke="#2B4B9B" stroke-miterlimit="10" d="M45.7,515.1V511"/>
		<path fill="none" stroke="#2B4B9B" stroke-miterlimit="10" d="M45.7,511h13.6"/>
		<path fill="none" stroke="#2B4B9B" stroke-miterlimit="10" stroke-dasharray="2,10" d="M92.4,403.2V558"/>
		<path fill="none" stroke="#2B4B9B" stroke-miterlimit="10" stroke-dasharray="2,10" d="M169.2,403.2V558"/>
		<path fill="none" stroke="#2B4B9B" stroke-miterlimit="10" d="M137.6,515.1V511"/>
		<path fill="none" stroke="#2B4B9B" stroke-miterlimit="10" d="M124.1,515.1V511"/>
		<path fill="none" stroke="#2B4B9B" stroke-miterlimit="10" d="M124.1,511h13.6"/>
		<path fill="none" stroke="#2B4B9B" stroke-miterlimit="10" stroke-dasharray="2,10" d="M242.1,403.2V558"/>
		<path fill="none" stroke="#2B4B9B" stroke-miterlimit="10" d="M212.4,515.1V511"/>
		<path fill="none" stroke="#2B4B9B" stroke-miterlimit="10" d="M198.9,515.1V511"/>
		<path fill="none" stroke="#2B4B9B" stroke-miterlimit="10" d="M198.9,511h13.6"/>
		<path fill="none" stroke="#2B4B9B" stroke-miterlimit="10" stroke-dasharray="2,10" d="M272.5,403.2V558"/>
		<path fill="none" stroke="#2B4B9B" stroke-miterlimit="10" stroke-dasharray="2,10" d="M305,403.2V558"/>
		<path fill="none" stroke="#2B4B9B" stroke-miterlimit="10" stroke-dasharray="2,10" d="M406.4,403.2V558"/>
		<path fill="none" stroke="#2B4B9B" stroke-miterlimit="10" d="M362.5,515.1V511"/>
		<path fill="none" stroke="#2B4B9B" stroke-miterlimit="10" d="M348.9,515.1V511"/>
		<path fill="none" stroke="#2B4B9B" stroke-miterlimit="10" d="M348.9,511h13.6"/>
		<path fill="none" stroke="#2B4B9B" stroke-miterlimit="10" stroke-dasharray="2,10" d="M431.9,403.2V558"/>
		<path fill="none" stroke="#2B4B9B" stroke-miterlimit="10" stroke-dasharray="2,10" d="M471.3,403.2V558"/>
		<path fill="none" stroke="#2B4B9B" stroke-miterlimit="10" stroke-dasharray="2,10" d="M593.3,403.2V558"/>
		<path fill="none" stroke="#2B4B9B" stroke-miterlimit="10" d="M539.1,515.1V511"/>
		<path fill="none" stroke="#2B4B9B" stroke-miterlimit="10" d="M525.5,515.1V511"/>
		<path fill="none" stroke="#2B4B9B" stroke-miterlimit="10" d="M525.5,511h13.6"/>
		<path fill="none" stroke="#2B4B9B" stroke-miterlimit="10" stroke-dasharray="2,10" d="M661.1,403.2V558"/>
		<path fill="none" stroke="#2B4B9B" stroke-miterlimit="10" d="M27.2,403.2h633.9l17,17V541l-17,17H27.2V403.2"/>
	</g>
</g>
<g>
	<polygon fill="none" stroke="#E52620" stroke-miterlimit="10" points="740.6,423 704.6,445.3 720.3,480.7 732.8,472.9 771.1,488.2 
		793.5,479 	"/>
</g>
<g>
	<polygon fill="none" stroke="#E52620" stroke-miterlimit="10" points="643.5,44.9 683.3,49 699,84.5 711.5,76.6 749.8,91.9 
		750.5,111.4 690.7,119.8 693,134.8 674.1,148.7 653.6,139 659.4,115.7 649.3,93.4 658,86 	"/>
</g>
</svg>
