<?xml version="1.0" encoding="utf-8"?>
<!-- Generator: Adobe Illustrator 18.0.0, SVG Export Plug-In . SVG Version: 6.00 Build 0)  -->
<!DOCTYPE svg PUBLIC "-//W3C//DTD SVG 1.1//EN" "http://www.w3.org/Graphics/SVG/1.1/DTD/svg11.dtd">
<svg version="1.1" id="Layer_1" xmlns="http://www.w3.org/2000/svg" xmlns:xlink="http://www.w3.org/1999/xlink" x="0px" y="0px"
	 viewBox="0 0 841.9 595.3" enable-background="new 0 0 841.9 595.3" xml:space="preserve">
<g>
	<g>
		<path fill="none" stroke="#E52620" stroke-miterlimit="10" stroke-dasharray="2,10" d="M91.6,41.1v204"/>
		<path fill="none" stroke="#E52620" stroke-miterlimit="10" d="M64.6,106.2v-4.1"/>
		<path fill="none" stroke="#E52620" stroke-miterlimit="10" d="M51,106.2v-4.1"/>
		<path fill="none" stroke="#E52620" stroke-miterlimit="10" d="M51,102.1h13.6"/>
		<path fill="none" stroke="#E52620" stroke-miterlimit="10" stroke-dasharray="2,10" d="M141.4,41.1v204"/>
		<path fill="none" stroke="#E52620" stroke-miterlimit="10" d="M123.3,106.2v-4.1"/>
		<path fill="none" stroke="#E52620" stroke-miterlimit="10" d="M109.7,106.2v-4.1"/>
		<path fill="none" stroke="#E52620" stroke-miterlimit="10" d="M109.7,102.1h13.6"/>
		<path fill="none" stroke="#E52620" stroke-miterlimit="10" stroke-dasharray="2,10" d="M201.6,41.1v204"/>
		<path fill="none" stroke="#E52620" stroke-miterlimit="10" d="M178.3,106.2v-4.1"/>
		<path fill="none" stroke="#E52620" stroke-miterlimit="10" d="M164.7,106.2v-4.1"/>
		<path fill="none" stroke="#E52620" stroke-miterlimit="10" d="M164.7,102.1h13.6"/>
		<path fill="none" stroke="#E52620" stroke-miterlimit="10" stroke-dasharray="2,10" d="M253.3,41.1v204"/>
		<path fill="none" stroke="#E52620" stroke-miterlimit="10" d="M234.2,106.2v-4.1"/>
		<path fill="none" stroke="#E52620" stroke-miterlimit="10" d="M220.7,106.2v-4.1"/>
		<path fill="none" stroke="#E52620" stroke-miterlimit="10" d="M220.7,102.1h13.6"/>
		<path fill="none" stroke="#E52620" stroke-miterlimit="10" stroke-dasharray="2,10" d="M306.3,41.1v204"/>
		<path fill="none" stroke="#E52620" stroke-miterlimit="10" d="M286.6,106.2v-4.1"/>
		<path fill="none" stroke="#E52620" stroke-miterlimit="10" d="M273,106.2v-4.1"/>
		<path fill="none" stroke="#E52620" stroke-miterlimit="10" d="M273,102.1h13.6"/>
		<path fill="none" stroke="#E52620" stroke-miterlimit="10" stroke-dasharray="2,10" d="M412.5,41.1v204"/>
		<path fill="none" stroke="#E52620" stroke-miterlimit="10" d="M366.2,106.2v-4.1"/>
		<path fill="none" stroke="#E52620" stroke-miterlimit="10" d="M352.6,106.2v-4.1"/>
		<path fill="none" stroke="#E52620" stroke-miterlimit="10" d="M352.6,102.1h13.6"/>
		<path fill="none" stroke="#E52620" stroke-miterlimit="10" stroke-dasharray="2,10" d="M461.9,41.1v204"/>
		<path fill="none" stroke="#E52620" stroke-miterlimit="10" d="M444,106.2v-4.1"/>
		<path fill="none" stroke="#E52620" stroke-miterlimit="10" d="M430.5,106.2v-4.1"/>
		<path fill="none" stroke="#E52620" stroke-miterlimit="10" d="M430.5,102.1H444"/>
		<path fill="none" stroke="#E52620" stroke-miterlimit="10" stroke-dasharray="2,10" d="M529.7,41.1v204"/>
		<path fill="none" stroke="#E52620" stroke-miterlimit="10" d="M24,41.1h505.7l17,17v170.1l-17,17H24V41.1"/>
	</g>
</g>
<g>
	<g>
		<path fill="none" stroke="#E52620" stroke-miterlimit="10" stroke-dasharray="2,10" d="M601.8,499.8h147.3"/>
		<path fill="none" stroke="#E52620" stroke-miterlimit="10" stroke-dasharray="2,10" d="M601.8,472.4h147.3"/>
		<path fill="none" stroke="#E52620" stroke-miterlimit="10" stroke-dasharray="2,10" d="M601.8,445.2h147.3"/>
		<path fill="none" stroke="#E52620" stroke-miterlimit="10" stroke-dasharray="2,10" d="M601.8,419.5h147.3"/>
		<path fill="none" stroke="#E52620" stroke-miterlimit="10" stroke-dasharray="2,10" d="M601.8,340.9h147.3"/>
		<path fill="none" stroke="#E52620" stroke-miterlimit="10" d="M735.6,373.4h-4.1"/>
		<path fill="none" stroke="#E52620" stroke-miterlimit="10" d="M735.6,387h-4.1"/>
		<path fill="none" stroke="#E52620" stroke-miterlimit="10" d="M731.5,387v-13.6"/>
		<path fill="none" stroke="#E52620" stroke-miterlimit="10" stroke-dasharray="2,10" d="M601.8,267.4h147.3"/>
		<path fill="none" stroke="#E52620" stroke-miterlimit="10" d="M735.6,297.3h-4.1"/>
		<path fill="none" stroke="#E52620" stroke-miterlimit="10" d="M735.6,310.9h-4.1"/>
		<path fill="none" stroke="#E52620" stroke-miterlimit="10" d="M731.5,310.9v-13.6"/>
		<path fill="none" stroke="#E52620" stroke-miterlimit="10" stroke-dasharray="2,10" d="M601.8,194.5h147.3"/>
		<path fill="none" stroke="#E52620" stroke-miterlimit="10" d="M735.6,224.2h-4.1"/>
		<path fill="none" stroke="#E52620" stroke-miterlimit="10" d="M735.6,237.7h-4.1"/>
		<path fill="none" stroke="#E52620" stroke-miterlimit="10" d="M731.5,237.7v-13.6"/>
		<path fill="none" stroke="#E52620" stroke-miterlimit="10" stroke-dasharray="2,10" d="M601.8,164.1h147.3"/>
		<path fill="none" stroke="#E52620" stroke-miterlimit="10" stroke-dasharray="2,10" d="M601.8,96.2h147.3"/>
		<path fill="none" stroke="#E52620" stroke-miterlimit="10" d="M601.8,516V96.2l17-17h113.4l17,17V516H601.8"/>
	</g>
</g>
<g>
	<g>
		<path fill="none" stroke="#E52620" stroke-miterlimit="10" stroke-dasharray="2,10" d="M64,282.7v203.8"/>
		<path fill="none" stroke="#E52620" stroke-miterlimit="10" stroke-dasharray="2,10" d="M140.8,282.7v203.8"/>
		<path fill="none" stroke="#E52620" stroke-miterlimit="10" d="M109.1,342.8v-4.1"/>
		<path fill="none" stroke="#E52620" stroke-miterlimit="10" d="M95.6,342.8v-4.1"/>
		<path fill="none" stroke="#E52620" stroke-miterlimit="10" d="M95.6,338.7h13.6"/>
		<path fill="none" stroke="#E52620" stroke-miterlimit="10" stroke-dasharray="2,10" d="M209.6,282.7v203.8"/>
		<path fill="none" stroke="#E52620" stroke-miterlimit="10" d="M182,342.8v-4.1"/>
		<path fill="none" stroke="#E52620" stroke-miterlimit="10" d="M168.4,342.8v-4.1"/>
		<path fill="none" stroke="#E52620" stroke-miterlimit="10" d="M168.4,338.7H182"/>
		<path fill="none" stroke="#E52620" stroke-miterlimit="10" stroke-dasharray="2,10" d="M274.9,282.7v203.8"/>
		<path fill="none" stroke="#E52620" stroke-miterlimit="10" d="M249,342.8v-4.1"/>
		<path fill="none" stroke="#E52620" stroke-miterlimit="10" d="M235.5,342.8v-4.1"/>
		<path fill="none" stroke="#E52620" stroke-miterlimit="10" d="M235.5,338.7H249"/>
		<path fill="none" stroke="#E52620" stroke-miterlimit="10" stroke-dasharray="2,10" d="M316,282.7v203.8"/>
		<path fill="none" stroke="#E52620" stroke-miterlimit="10" d="M302.2,342.8v-4.1"/>
		<path fill="none" stroke="#E52620" stroke-miterlimit="10" d="M288.7,342.8v-4.1"/>
		<path fill="none" stroke="#E52620" stroke-miterlimit="10" d="M288.7,338.7h13.6"/>
		<path fill="none" stroke="#E52620" stroke-miterlimit="10" stroke-dasharray="2,10" d="M399.6,282.7v203.8"/>
		<path fill="none" stroke="#E52620" stroke-miterlimit="10" d="M364.6,342.8v-4.1"/>
		<path fill="none" stroke="#E52620" stroke-miterlimit="10" d="M351,342.8v-4.1"/>
		<path fill="none" stroke="#E52620" stroke-miterlimit="10" d="M351,338.7h13.6"/>
		<path fill="none" stroke="#E52620" stroke-miterlimit="10" stroke-dasharray="2,10" d="M467.4,282.7v203.8"/>
		<path fill="none" stroke="#E52620" stroke-miterlimit="10" d="M35.1,282.7h432.3l17,17v169.9l-17,17H35.1V282.7"/>
	</g>
</g>
</svg>
