<?xml version="1.0" encoding="utf-8"?>
<!-- Generator: Adobe Illustrator 18.0.0, SVG Export Plug-In . SVG Version: 6.00 Build 0)  -->
<!DOCTYPE svg PUBLIC "-//W3C//DTD SVG 1.1//EN" "http://www.w3.org/Graphics/SVG/1.1/DTD/svg11.dtd">
<svg version="1.1" id="Layer_1" xmlns="http://www.w3.org/2000/svg" xmlns:xlink="http://www.w3.org/1999/xlink" x="0px" y="0px"
	 viewBox="0 0 841.9 595.3" enable-background="new 0 0 841.9 595.3" xml:space="preserve">
<g>
	<g>
		<path fill="none" stroke="#E52620" stroke-miterlimit="10" stroke-dasharray="2,10" d="M658.6,469.2h147.1"/>
		<path fill="none" stroke="#E52620" stroke-miterlimit="10" d="M789.8,497.9h-4.1"/>
		<path fill="none" stroke="#E52620" stroke-miterlimit="10" d="M789.8,511.5h-4.1"/>
		<path fill="none" stroke="#E52620" stroke-miterlimit="10" d="M785.7,511.5v-13.6"/>
		<path fill="none" stroke="#E52620" stroke-miterlimit="10" stroke-dasharray="2,10" d="M658.6,404h147.1"/>
		<path fill="none" stroke="#E52620" stroke-miterlimit="10" d="M789.8,429.8h-4.1"/>
		<path fill="none" stroke="#E52620" stroke-miterlimit="10" d="M789.8,443.4h-4.1"/>
		<path fill="none" stroke="#E52620" stroke-miterlimit="10" d="M785.7,443.4v-13.6"/>
		<path fill="none" stroke="#E52620" stroke-miterlimit="10" stroke-dasharray="2,10" d="M658.6,379.2h147.1"/>
		<path fill="none" stroke="#E52620" stroke-miterlimit="10" stroke-dasharray="2,10" d="M658.6,309.9h147.1"/>
		<path fill="none" stroke="#E52620" stroke-miterlimit="10" d="M789.8,337.8h-4.1"/>
		<path fill="none" stroke="#E52620" stroke-miterlimit="10" d="M789.8,351.3h-4.1"/>
		<path fill="none" stroke="#E52620" stroke-miterlimit="10" d="M785.7,351.3v-13.6"/>
		<path fill="none" stroke="#E52620" stroke-miterlimit="10" stroke-dasharray="2,10" d="M658.6,269.2h147.1"/>
		<path fill="none" stroke="#E52620" stroke-miterlimit="10" d="M789.8,282.8h-4.1"/>
		<path fill="none" stroke="#E52620" stroke-miterlimit="10" d="M789.8,296.3h-4.1"/>
		<path fill="none" stroke="#E52620" stroke-miterlimit="10" d="M785.7,296.3v-13.6"/>
		<path fill="none" stroke="#E52620" stroke-miterlimit="10" stroke-dasharray="2,10" d="M658.6,139.8h147.1"/>
		<path fill="none" stroke="#E52620" stroke-miterlimit="10" d="M789.8,197.7h-4.1"/>
		<path fill="none" stroke="#E52620" stroke-miterlimit="10" d="M789.8,211.3h-4.1"/>
		<path fill="none" stroke="#E52620" stroke-miterlimit="10" d="M785.7,211.3v-13.6"/>
		<path fill="none" stroke="#E52620" stroke-miterlimit="10" stroke-dasharray="2,10" d="M658.6,72h147.1"/>
		<path fill="none" stroke="#E52620" stroke-miterlimit="10" d="M658.6,540.3V72l17-17h113.2l17,17v468.3H658.6"/>
	</g>
</g>
<g>
	<g>
		<path fill="none" stroke="#E52620" stroke-miterlimit="10" stroke-dasharray="2,10" d="M113.5,17.6v176.7"/>
		<path fill="none" stroke="#E52620" stroke-miterlimit="10" d="M75.6,99.4v-4.1"/>
		<path fill="none" stroke="#E52620" stroke-miterlimit="10" d="M62.1,99.4v-4.1"/>
		<path fill="none" stroke="#E52620" stroke-miterlimit="10" d="M62.1,95.4h13.6"/>
		<path fill="none" stroke="#E52620" stroke-miterlimit="10" stroke-dasharray="2,10" d="M198.3,17.6v176.7"/>
		<path fill="none" stroke="#E52620" stroke-miterlimit="10" d="M162.7,99.4v-4.1"/>
		<path fill="none" stroke="#E52620" stroke-miterlimit="10" d="M149.1,99.4v-4.1"/>
		<path fill="none" stroke="#E52620" stroke-miterlimit="10" d="M149.1,95.4h13.6"/>
		<path fill="none" stroke="#E52620" stroke-miterlimit="10" stroke-dasharray="2,10" d="M266.6,17.6v176.7"/>
		<path fill="none" stroke="#E52620" stroke-miterlimit="10" d="M239.3,99.4v-4.1"/>
		<path fill="none" stroke="#E52620" stroke-miterlimit="10" d="M225.7,99.4v-4.1"/>
		<path fill="none" stroke="#E52620" stroke-miterlimit="10" d="M225.7,95.4h13.6"/>
		<path fill="none" stroke="#E52620" stroke-miterlimit="10" stroke-dasharray="2,10" d="M301.2,17.6v176.7"/>
		<path fill="none" stroke="#E52620" stroke-miterlimit="10" stroke-dasharray="2,10" d="M383.4,17.6v176.7"/>
		<path fill="none" stroke="#E52620" stroke-miterlimit="10" d="M349.1,99.4v-4.1"/>
		<path fill="none" stroke="#E52620" stroke-miterlimit="10" d="M335.5,99.4v-4.1"/>
		<path fill="none" stroke="#E52620" stroke-miterlimit="10" d="M335.5,95.4h13.6"/>
		<path fill="none" stroke="#E52620" stroke-miterlimit="10" stroke-dasharray="2,10" d="M451.2,17.6v176.7"/>
		<path fill="none" stroke="#E52620" stroke-miterlimit="10" d="M24.2,17.6h427l17,17v142.8l-17,17h-427V17.6"/>
	</g>
</g>
<g>
	<g>
		<path fill="none" stroke="#E52620" stroke-miterlimit="10" stroke-dasharray="2,10" d="M84.1,220.2v188.4"/>
		<path fill="none" stroke="#E52620" stroke-miterlimit="10" d="M64.9,289.5v-4.1"/>
		<path fill="none" stroke="#E52620" stroke-miterlimit="10" d="M51.3,289.5v-4.1"/>
		<path fill="none" stroke="#E52620" stroke-miterlimit="10" d="M51.3,285.4h13.6"/>
		<path fill="none" stroke="#E52620" stroke-miterlimit="10" stroke-dasharray="2,10" d="M173.5,220.2v188.4"/>
		<path fill="none" stroke="#E52620" stroke-miterlimit="10" d="M135.6,289.5v-4.1"/>
		<path fill="none" stroke="#E52620" stroke-miterlimit="10" d="M122,289.5v-4.1"/>
		<path fill="none" stroke="#E52620" stroke-miterlimit="10" d="M122,285.4h13.6"/>
		<path fill="none" stroke="#E52620" stroke-miterlimit="10" stroke-dasharray="2,10" d="M215.3,220.2v188.4"/>
		<path fill="none" stroke="#E52620" stroke-miterlimit="10" d="M201.2,289.5v-4.1"/>
		<path fill="none" stroke="#E52620" stroke-miterlimit="10" d="M187.6,289.5v-4.1"/>
		<path fill="none" stroke="#E52620" stroke-miterlimit="10" d="M187.6,285.4h13.6"/>
		<path fill="none" stroke="#E52620" stroke-miterlimit="10" stroke-dasharray="2,10" d="M263.9,220.2v188.4"/>
		<path fill="none" stroke="#E52620" stroke-miterlimit="10" d="M246.4,289.5v-4.1"/>
		<path fill="none" stroke="#E52620" stroke-miterlimit="10" d="M232.8,289.5v-4.1"/>
		<path fill="none" stroke="#E52620" stroke-miterlimit="10" d="M232.8,285.4h13.6"/>
		<path fill="none" stroke="#E52620" stroke-miterlimit="10" stroke-dasharray="2,10" d="M287.8,220.2v188.4"/>
		<path fill="none" stroke="#E52620" stroke-miterlimit="10" stroke-dasharray="2,10" d="M313.3,220.2v188.4"/>
		<path fill="none" stroke="#E52620" stroke-miterlimit="10" stroke-dasharray="2,10" d="M339.6,220.2v188.4"/>
		<path fill="none" stroke="#E52620" stroke-miterlimit="10" stroke-dasharray="2,10" d="M407.5,220.2v188.4"/>
		<path fill="none" stroke="#E52620" stroke-miterlimit="10" d="M32.1,220.2h375.4l17,17v154.5l-17,17H32.1V220.2"/>
	</g>
</g>
<g>
	<polygon fill="none" stroke="#2B4B9B" stroke-miterlimit="10" points="389.8,475.5 426.9,524.5 432.1,555.7 460.1,549.8 
		455.9,539.9 474.4,517.1 484.7,428.7 467.1,408.2 453.1,411.6 460.6,429.9 440.6,465.6 	"/>
</g>
<g>
	<polygon fill="none" stroke="#2B4B9B" stroke-miterlimit="10" points="481.5,58.4 492.2,92 504,83.8 518.9,98.1 521.6,109.5 
		536.1,114.2 580.2,78.6 543.6,29.7 519.2,34.8 525.5,51.5 	"/>
</g>
<g>
	<polygon fill="none" stroke="#2B4B9B" stroke-miterlimit="10" points="467.1,252.8 469.9,298.5 500.1,300 515.6,267.8 537.5,286.8 
		527.1,316.1 544.6,336.5 592.2,288.3 550.1,242.6 519.6,243.2 486.4,266.9 	"/>
</g>
<g>
	<polygon fill="none" stroke="#2B4B9B" stroke-miterlimit="10" points="594.6,449.6 589.4,479.3 597.7,482 621.6,443 608.8,401.5 
		622.3,389.4 607.6,376.9 547.8,385.3 550,400.3 531.1,414.1 	"/>
</g>
<g>
	<polygon fill="none" stroke="#2B4B9B" stroke-miterlimit="10" points="529.7,171 550.8,160.9 581.2,174 576.7,190.3 561.3,193.4 
		553.7,207.7 530.4,189.5 	"/>
</g>
</svg>
