<?xml version="1.0" encoding="utf-8"?>
<!-- Generator: Adobe Illustrator 18.0.0, SVG Export Plug-In . SVG Version: 6.00 Build 0)  -->
<!DOCTYPE svg PUBLIC "-//W3C//DTD SVG 1.1//EN" "http://www.w3.org/Graphics/SVG/1.1/DTD/svg11.dtd">
<svg version="1.1" id="Layer_1" xmlns="http://www.w3.org/2000/svg" xmlns:xlink="http://www.w3.org/1999/xlink" x="0px" y="0px"
	 viewBox="0 0 841.9 595.3" enable-background="new 0 0 841.9 595.3" xml:space="preserve">
<g>
	<g>
		<path fill="none" stroke="#2B4B9B" stroke-miterlimit="10" stroke-dasharray="2,10" d="M101.5,29.9v150.3"/>
		<path fill="none" stroke="#2B4B9B" stroke-miterlimit="10" d="M69.9,149.1V145"/>
		<path fill="none" stroke="#2B4B9B" stroke-miterlimit="10" d="M56.3,149.1V145"/>
		<path fill="none" stroke="#2B4B9B" stroke-miterlimit="10" d="M56.3,145h13.6"/>
		<path fill="none" stroke="#2B4B9B" stroke-miterlimit="10" stroke-dasharray="2,10" d="M152.2,29.9v150.3"/>
		<path fill="none" stroke="#2B4B9B" stroke-miterlimit="10" d="M133.7,149.1V145"/>
		<path fill="none" stroke="#2B4B9B" stroke-miterlimit="10" d="M120.1,149.1V145"/>
		<path fill="none" stroke="#2B4B9B" stroke-miterlimit="10" d="M120.1,145h13.6"/>
		<path fill="none" stroke="#2B4B9B" stroke-miterlimit="10" stroke-dasharray="2,10" d="M212.3,29.9v150.3"/>
		<path fill="none" stroke="#2B4B9B" stroke-miterlimit="10" d="M189,149.1V145"/>
		<path fill="none" stroke="#2B4B9B" stroke-miterlimit="10" d="M175.5,149.1V145"/>
		<path fill="none" stroke="#2B4B9B" stroke-miterlimit="10" d="M175.5,145H189"/>
		<path fill="none" stroke="#2B4B9B" stroke-miterlimit="10" stroke-dasharray="2,10" d="M260.8,29.9v150.3"/>
		<path fill="none" stroke="#2B4B9B" stroke-miterlimit="10" d="M243.3,149.1V145"/>
		<path fill="none" stroke="#2B4B9B" stroke-miterlimit="10" d="M229.8,149.1V145"/>
		<path fill="none" stroke="#2B4B9B" stroke-miterlimit="10" d="M229.8,145h13.6"/>
		<path fill="none" stroke="#2B4B9B" stroke-miterlimit="10" stroke-dasharray="2,10" d="M313,29.9v150.3"/>
		<path fill="none" stroke="#2B4B9B" stroke-miterlimit="10" d="M293.7,149.1V145"/>
		<path fill="none" stroke="#2B4B9B" stroke-miterlimit="10" d="M280.1,149.1V145"/>
		<path fill="none" stroke="#2B4B9B" stroke-miterlimit="10" d="M280.1,145h13.6"/>
		<path fill="none" stroke="#2B4B9B" stroke-miterlimit="10" stroke-dasharray="2,10" d="M358.3,29.9v150.3"/>
		<path fill="none" stroke="#2B4B9B" stroke-miterlimit="10" d="M342.4,149.1V145"/>
		<path fill="none" stroke="#2B4B9B" stroke-miterlimit="10" d="M328.9,149.1V145"/>
		<path fill="none" stroke="#2B4B9B" stroke-miterlimit="10" d="M328.9,145h13.6"/>
		<path fill="none" stroke="#2B4B9B" stroke-miterlimit="10" stroke-dasharray="2,10" d="M472,29.9v150.3"/>
		<path fill="none" stroke="#2B4B9B" stroke-miterlimit="10" d="M421.9,149.1V145"/>
		<path fill="none" stroke="#2B4B9B" stroke-miterlimit="10" d="M408.4,149.1V145"/>
		<path fill="none" stroke="#2B4B9B" stroke-miterlimit="10" d="M408.4,145h13.6"/>
		<path fill="none" stroke="#2B4B9B" stroke-miterlimit="10" stroke-dasharray="2,10" d="M576.3,29.9v150.3"/>
		<path fill="none" stroke="#2B4B9B" stroke-miterlimit="10" d="M531,149.1V145"/>
		<path fill="none" stroke="#2B4B9B" stroke-miterlimit="10" d="M517.4,149.1V145"/>
		<path fill="none" stroke="#2B4B9B" stroke-miterlimit="10" d="M517.4,145H531"/>
		<path fill="none" stroke="#2B4B9B" stroke-miterlimit="10" stroke-dasharray="2,10" d="M627.6,29.9v150.3"/>
		<path fill="none" stroke="#2B4B9B" stroke-miterlimit="10" d="M608.8,149.1V145"/>
		<path fill="none" stroke="#2B4B9B" stroke-miterlimit="10" d="M595.2,149.1V145"/>
		<path fill="none" stroke="#2B4B9B" stroke-miterlimit="10" d="M595.2,145h13.6"/>
		<path fill="none" stroke="#2B4B9B" stroke-miterlimit="10" stroke-dasharray="2,10" d="M696,29.9v150.3"/>
		<path fill="none" stroke="#2B4B9B" stroke-miterlimit="10" d="M668.6,149.1V145"/>
		<path fill="none" stroke="#2B4B9B" stroke-miterlimit="10" d="M655,149.1V145"/>
		<path fill="none" stroke="#2B4B9B" stroke-miterlimit="10" d="M655,145h13.6"/>
		<path fill="none" stroke="#2B4B9B" stroke-miterlimit="10" stroke-dasharray="2,10" d="M736.1,29.9v150.3"/>
		<path fill="none" stroke="#2B4B9B" stroke-miterlimit="10" stroke-dasharray="2,10" d="M803.9,29.9v150.3"/>
		<path fill="none" stroke="#2B4B9B" stroke-miterlimit="10" d="M24.6,29.9h779.3l17,17v116.4l-17,17H24.6V29.9"/>
	</g>
</g>
<g>
	<g>
		<path fill="none" stroke="#2B4B9B" stroke-miterlimit="10" stroke-dasharray="2,10" d="M70.7,193.4v156"/>
		<path fill="none" stroke="#2B4B9B" stroke-miterlimit="10" stroke-dasharray="2,10" d="M126.3,193.4v156"/>
		<path fill="none" stroke="#2B4B9B" stroke-miterlimit="10" d="M105.3,315.8v-4.1"/>
		<path fill="none" stroke="#2B4B9B" stroke-miterlimit="10" d="M91.7,315.8v-4.1"/>
		<path fill="none" stroke="#2B4B9B" stroke-miterlimit="10" d="M91.7,311.8h13.6"/>
		<path fill="none" stroke="#2B4B9B" stroke-miterlimit="10" stroke-dasharray="2,10" d="M154.7,193.4v156"/>
		<path fill="none" stroke="#2B4B9B" stroke-miterlimit="10" stroke-dasharray="2,10" d="M181.1,193.4v156"/>
		<path fill="none" stroke="#2B4B9B" stroke-miterlimit="10" stroke-dasharray="2,10" d="M208.2,193.4v156"/>
		<path fill="none" stroke="#2B4B9B" stroke-miterlimit="10" stroke-dasharray="2,10" d="M258.1,193.4v156"/>
		<path fill="none" stroke="#2B4B9B" stroke-miterlimit="10" d="M239.9,315.8v-4.1"/>
		<path fill="none" stroke="#2B4B9B" stroke-miterlimit="10" d="M226.4,315.8v-4.1"/>
		<path fill="none" stroke="#2B4B9B" stroke-miterlimit="10" d="M226.4,311.8h13.6"/>
		<path fill="none" stroke="#2B4B9B" stroke-miterlimit="10" stroke-dasharray="2,10" d="M289.1,193.4v156"/>
		<path fill="none" stroke="#2B4B9B" stroke-miterlimit="10" stroke-dasharray="2,10" d="M356.9,193.4v156"/>
		<path fill="none" stroke="#2B4B9B" stroke-miterlimit="10" d="M31.4,193.4h325.6l17,17v122.1l-17,17H31.4L31.4,193.4"/>
	</g>
</g>
<g>
	<polygon fill="none" stroke="#E52620" stroke-miterlimit="10" points="592.9,199.6 546.6,218.6 599.4,274.7 628.1,288.9 640,279.3 
		614.7,249.8 602.5,251.1 613.7,216.9 	"/>
</g>
<g>
	<polygon fill="none" stroke="#E52620" stroke-miterlimit="10" points="418.3,266.8 450.3,242.5 479.9,244.4 494.2,211.5 518.1,231 
		506.9,260.5 445.9,277 	"/>
</g>
<g>
	<polygon fill="none" stroke="#E52620" stroke-miterlimit="10" points="600.3,323 655.1,320.3 659.6,344.9 642.5,391 606.1,396.4 
		617.2,362.2 595.6,344.5 	"/>
</g>
<g>
	<polygon fill="none" stroke="#E52620" stroke-miterlimit="10" points="729.6,330.6 714,381.4 763.5,371.6 784.2,336.6 776.7,317.4 
			"/>
</g>
<g>
	<polygon fill="none" stroke="#E52620" stroke-miterlimit="10" points="439.3,316.2 468.5,326.6 452.8,377.5 428.4,382.6 419.6,355 
		423.8,341.4 427.7,326.7 	"/>
</g>
<g>
	<polygon fill="none" stroke="#E52620" stroke-miterlimit="10" points="532.2,329 540.1,334.5 548.4,320.4 564,316.3 559.6,330.9 
		574.6,375.2 531.5,382.5 518.7,341.1 	"/>
</g>
<g>
	<polygon fill="none" stroke="#E52620" stroke-miterlimit="10" points="708,193.4 721.8,203.7 725.4,249.2 691.9,272.9 666.7,243.3 
		690.9,240.1 	"/>
</g>
</svg>
