<?xml version="1.0" encoding="utf-8"?>
<!-- Generator: Adobe Illustrator 18.0.0, SVG Export Plug-In . SVG Version: 6.00 Build 0)  -->
<!DOCTYPE svg PUBLIC "-//W3C//DTD SVG 1.1//EN" "http://www.w3.org/Graphics/SVG/1.1/DTD/svg11.dtd">
<svg version="1.1" id="Layer_1" xmlns="http://www.w3.org/2000/svg" xmlns:xlink="http://www.w3.org/1999/xlink" x="0px" y="0px"
	 viewBox="0 0 841.9 595.3" enable-background="new 0 0 841.9 595.3" xml:space="preserve">
<g>
	<polygon fill="none" stroke="#2B4B9B" stroke-miterlimit="10" points="100.7,418.4 162.6,500.3 171.3,552.4 218,542.7 211,526 
		242,487.9 259,340.3 229.7,306.2 206.4,311.8 218.9,342.3 185.5,402 	"/>
</g>
<g>
	<polygon fill="none" stroke="#2B4B9B" stroke-miterlimit="10" points="363.4,66 381.2,122.1 401,108.5 425.9,132.4 430.4,151.3 
		454.6,159.3 528.2,99.7 467.2,18.1 426.5,26.6 436.8,54.5 	"/>
</g>
<g>
	<polygon fill="none" stroke="#2B4B9B" stroke-miterlimit="10" points="338.2,358.6 342.8,434.9 393.2,437.4 419.2,383.7 
		455.6,415.3 438.3,464.2 467.6,498.3 547,417.8 476.8,341.5 425.8,342.6 370.4,382.1 	"/>
</g>
<g>
	<polygon fill="none" stroke="#2B4B9B" stroke-miterlimit="10" points="692.7,462.9 684.2,512.6 698,517 737.9,451.9 716.5,382.7 
		739,362.4 714.5,341.5 614.6,355.6 618.4,380.6 586.8,403.8 	"/>
</g>
<g>
	<polygon fill="none" stroke="#2B4B9B" stroke-miterlimit="10" points="556.2,228.6 591.5,211.8 642.2,233.7 634.7,260.9 609,266.1 
		596.4,290 557.3,259.5 	"/>
</g>
</svg>
