<?xml version="1.0" encoding="utf-8"?>
<!-- Generator: Adobe Illustrator 18.0.0, SVG Export Plug-In . SVG Version: 6.00 Build 0)  -->
<!DOCTYPE svg PUBLIC "-//W3C//DTD SVG 1.1//EN" "http://www.w3.org/Graphics/SVG/1.1/DTD/svg11.dtd">
<svg version="1.1" id="Layer_1" xmlns="http://www.w3.org/2000/svg" xmlns:xlink="http://www.w3.org/1999/xlink" x="0px" y="0px"
	 viewBox="0 0 841.9 595.3" enable-background="new 0 0 841.9 595.3" xml:space="preserve">
<g>
	<polygon fill="none" stroke="#E52620" stroke-miterlimit="10" points="420.2,128.2 343,159.9 431.1,253.5 479.1,277.3 498.9,261.2 
		456.7,211.9 436.2,214.2 455.1,157 	"/>
</g>
<g>
	<polygon fill="none" stroke="#E52620" stroke-miterlimit="10" points="567.5,93.9 507.4,131.1 533.6,190.3 554.5,177.2 
		618.4,202.7 655.9,187.4 	"/>
</g>
<g>
	<polygon fill="none" stroke="#E52620" stroke-miterlimit="10" points="200,359 253.5,318.4 303,321.6 326.7,266.7 366.7,299.2 
		348,348.4 246.1,376 	"/>
</g>
<g>
	<polygon fill="none" stroke="#E52620" stroke-miterlimit="10" points="128.8,61.7 195.3,68.5 221.4,127.7 242.3,114.6 306.3,140.1 
		307.6,172.7 207.7,186.8 211.5,211.8 179.9,235 145.7,218.8 155.5,179.9 138.5,142.7 153,130.3 	"/>
</g>
<g>
	<polygon fill="none" stroke="#E52620" stroke-miterlimit="10" points="453.2,422.7 544.7,418.3 552.3,459.3 523.8,536.2 463,545.3 
		481.5,488.2 445.4,458.6 	"/>
</g>
<g>
	<polygon fill="none" stroke="#E52620" stroke-miterlimit="10" points="623.4,403.9 597.3,488.7 680,472.4 714.6,413.9 702.1,381.9 
			"/>
</g>
<g>
	<polygon fill="none" stroke="#E52620" stroke-miterlimit="10" points="183.9,426.4 232.6,443.8 206.5,528.6 165.8,537.1 151,491.2 
		158.1,468.5 164.5,443.9 	"/>
</g>
<g>
	<polygon fill="none" stroke="#E52620" stroke-miterlimit="10" points="337.4,447.7 350.6,456.8 364.6,433.4 390.7,426.4 
		383.2,450.9 408.3,524.8 336.3,537.1 314.9,467.9 	"/>
</g>
<g>
	<polygon fill="none" stroke="#E52620" stroke-miterlimit="10" points="531.2,243.8 554.3,260.9 560.2,337.1 504.3,376.6 
		462.1,327.2 502.7,321.8 	"/>
</g>
</svg>
