<?xml version="1.0" encoding="utf-8"?>
<!-- Generator: Adobe Illustrator 18.0.0, SVG Export Plug-In . SVG Version: 6.00 Build 0)  -->
<!DOCTYPE svg PUBLIC "-//W3C//DTD SVG 1.1//EN" "http://www.w3.org/Graphics/SVG/1.1/DTD/svg11.dtd">
<svg version="1.1" id="Layer_1" xmlns="http://www.w3.org/2000/svg" xmlns:xlink="http://www.w3.org/1999/xlink" x="0px" y="0px"
	 viewBox="0 0 841.9 595.3" enable-background="new 0 0 841.9 595.3" xml:space="preserve">
<g>
	<g>
		<path fill="none" stroke="#E52620" stroke-miterlimit="10" stroke-dasharray="2,10" d="M97.5,30.6v138.7"/>
		<path fill="none" stroke="#E52620" stroke-miterlimit="10" d="M62.3,167.1V163"/>
		<path fill="none" stroke="#E52620" stroke-miterlimit="10" d="M48.8,167.1V163"/>
		<path fill="none" stroke="#E52620" stroke-miterlimit="10" d="M48.8,163h13.6"/>
		<path fill="none" stroke="#E52620" stroke-miterlimit="10" stroke-dasharray="2,10" d="M226.8,30.6v138.7"/>
		<path fill="none" stroke="#E52620" stroke-miterlimit="10" d="M169,167.1V163"/>
		<path fill="none" stroke="#E52620" stroke-miterlimit="10" d="M155.4,167.1V163"/>
		<path fill="none" stroke="#E52620" stroke-miterlimit="10" d="M155.4,163H169"/>
		<path fill="none" stroke="#E52620" stroke-miterlimit="10" stroke-dasharray="2,10" d="M280.7,30.6v138.7"/>
		<path fill="none" stroke="#E52620" stroke-miterlimit="10" d="M260.5,167.1V163"/>
		<path fill="none" stroke="#E52620" stroke-miterlimit="10" d="M247,167.1V163"/>
		<path fill="none" stroke="#E52620" stroke-miterlimit="10" d="M247,163h13.6"/>
		<path fill="none" stroke="#E52620" stroke-miterlimit="10" stroke-dasharray="2,10" d="M306.3,30.6v138.7"/>
		<path fill="none" stroke="#E52620" stroke-miterlimit="10" stroke-dasharray="2,10" d="M371.6,30.6v138.7"/>
		<path fill="none" stroke="#E52620" stroke-miterlimit="10" d="M345.8,167.1V163"/>
		<path fill="none" stroke="#E52620" stroke-miterlimit="10" d="M332.2,167.1V163"/>
		<path fill="none" stroke="#E52620" stroke-miterlimit="10" d="M332.2,163h13.6"/>
		<path fill="none" stroke="#E52620" stroke-miterlimit="10" stroke-dasharray="2,10" d="M392.3,30.6v138.7"/>
		<path fill="none" stroke="#E52620" stroke-miterlimit="10" stroke-dasharray="2,10" d="M452.9,30.6v138.7"/>
		<path fill="none" stroke="#E52620" stroke-miterlimit="10" d="M429.4,167.1V163"/>
		<path fill="none" stroke="#E52620" stroke-miterlimit="10" d="M415.8,167.1V163"/>
		<path fill="none" stroke="#E52620" stroke-miterlimit="10" d="M415.8,163h13.6"/>
		<path fill="none" stroke="#E52620" stroke-miterlimit="10" stroke-dasharray="2,10" d="M498.4,30.6v138.7"/>
		<path fill="none" stroke="#E52620" stroke-miterlimit="10" d="M482.4,167.1V163"/>
		<path fill="none" stroke="#E52620" stroke-miterlimit="10" d="M468.9,167.1V163"/>
		<path fill="none" stroke="#E52620" stroke-miterlimit="10" d="M468.9,163h13.6"/>
		<path fill="none" stroke="#E52620" stroke-miterlimit="10" stroke-dasharray="2,10" d="M566.2,30.6v138.7"/>
		<path fill="none" stroke="#E52620" stroke-miterlimit="10" d="M13.6,30.6h552.6l17,17v104.8l-17,17H13.6V30.6"/>
	</g>
</g>
<g>
	<g>
		<path fill="none" stroke="#E52620" stroke-miterlimit="10" stroke-dasharray="2,10" d="M94,186.4v140"/>
		<path fill="none" stroke="#E52620" stroke-miterlimit="10" d="M67.1,316.8v-4.1"/>
		<path fill="none" stroke="#E52620" stroke-miterlimit="10" d="M53.6,316.8v-4.1"/>
		<path fill="none" stroke="#E52620" stroke-miterlimit="10" d="M53.6,312.7h13.6"/>
		<path fill="none" stroke="#E52620" stroke-miterlimit="10" stroke-dasharray="2,10" d="M159.1,186.4v140"/>
		<path fill="none" stroke="#E52620" stroke-miterlimit="10" d="M133.3,316.8v-4.1"/>
		<path fill="none" stroke="#E52620" stroke-miterlimit="10" d="M119.8,316.8v-4.1"/>
		<path fill="none" stroke="#E52620" stroke-miterlimit="10" d="M119.8,312.7h13.6"/>
		<path fill="none" stroke="#E52620" stroke-miterlimit="10" stroke-dasharray="2,10" d="M184,186.4v140"/>
		<path fill="none" stroke="#E52620" stroke-miterlimit="10" stroke-dasharray="2,10" d="M253.3,186.4v140"/>
		<path fill="none" stroke="#E52620" stroke-miterlimit="10" d="M225.4,316.8v-4.1"/>
		<path fill="none" stroke="#E52620" stroke-miterlimit="10" d="M211.8,316.8v-4.1"/>
		<path fill="none" stroke="#E52620" stroke-miterlimit="10" d="M211.8,312.7h13.6"/>
		<path fill="none" stroke="#E52620" stroke-miterlimit="10" stroke-dasharray="2,10" d="M286.1,186.4v140"/>
		<path fill="none" stroke="#E52620" stroke-miterlimit="10" stroke-dasharray="2,10" d="M387.6,186.4v140"/>
		<path fill="none" stroke="#E52620" stroke-miterlimit="10" d="M343.6,316.8v-4.1"/>
		<path fill="none" stroke="#E52620" stroke-miterlimit="10" d="M330.1,316.8v-4.1"/>
		<path fill="none" stroke="#E52620" stroke-miterlimit="10" d="M330.1,312.7h13.6"/>
		<path fill="none" stroke="#E52620" stroke-miterlimit="10" stroke-dasharray="2,10" d="M413,186.4v140"/>
		<path fill="none" stroke="#E52620" stroke-miterlimit="10" stroke-dasharray="2,10" d="M452.4,186.4v140"/>
		<path fill="none" stroke="#E52620" stroke-miterlimit="10" stroke-dasharray="2,10" d="M490.5,186.4v140"/>
		<path fill="none" stroke="#E52620" stroke-miterlimit="10" stroke-dasharray="2,10" d="M530.9,186.4v140"/>
		<path fill="none" stroke="#E52620" stroke-miterlimit="10" stroke-dasharray="2,10" d="M572,186.4v140"/>
		<path fill="none" stroke="#E52620" stroke-miterlimit="10" d="M558.2,316.8v-4.1"/>
		<path fill="none" stroke="#E52620" stroke-miterlimit="10" d="M544.6,316.8v-4.1"/>
		<path fill="none" stroke="#E52620" stroke-miterlimit="10" d="M544.6,312.7h13.6"/>
		<path fill="none" stroke="#E52620" stroke-miterlimit="10" stroke-dasharray="2,10" d="M591.2,186.4v140"/>
		<path fill="none" stroke="#E52620" stroke-miterlimit="10" stroke-dasharray="2,10" d="M664.3,186.4v140"/>
		<path fill="none" stroke="#E52620" stroke-miterlimit="10" d="M634.5,316.8v-4.1"/>
		<path fill="none" stroke="#E52620" stroke-miterlimit="10" d="M621,316.8v-4.1"/>
		<path fill="none" stroke="#E52620" stroke-miterlimit="10" d="M621,312.7h13.6"/>
		<path fill="none" stroke="#E52620" stroke-miterlimit="10" stroke-dasharray="2,10" d="M732.1,186.4v140"/>
		<path fill="none" stroke="#E52620" stroke-miterlimit="10" d="M26.7,186.4h705.4l17,17v106.1l-17,17H26.7V186.4"/>
	</g>
</g>
<g>
	<g>
		<path fill="none" stroke="#E52620" stroke-miterlimit="10" stroke-dasharray="2,10" d="M136.7,356.5v179.3"/>
		<path fill="none" stroke="#E52620" stroke-miterlimit="10" d="M97.4,448.5v-4.1"/>
		<path fill="none" stroke="#E52620" stroke-miterlimit="10" d="M83.9,448.5v-4.1"/>
		<path fill="none" stroke="#E52620" stroke-miterlimit="10" d="M83.9,444.4h13.6"/>
		<path fill="none" stroke="#E52620" stroke-miterlimit="10" stroke-dasharray="2,10" d="M178.7,356.5v179.3"/>
		<path fill="none" stroke="#E52620" stroke-miterlimit="10" d="M164.5,448.5v-4.1"/>
		<path fill="none" stroke="#E52620" stroke-miterlimit="10" d="M150.9,448.5v-4.1"/>
		<path fill="none" stroke="#E52620" stroke-miterlimit="10" d="M150.9,444.4h13.6"/>
		<path fill="none" stroke="#E52620" stroke-miterlimit="10" stroke-dasharray="2,10" d="M261.2,356.5v179.3"/>
		<path fill="none" stroke="#E52620" stroke-miterlimit="10" d="M226.8,448.5v-4.1"/>
		<path fill="none" stroke="#E52620" stroke-miterlimit="10" d="M213.2,448.5v-4.1"/>
		<path fill="none" stroke="#E52620" stroke-miterlimit="10" d="M213.2,444.4h13.6"/>
		<path fill="none" stroke="#E52620" stroke-miterlimit="10" stroke-dasharray="2,10" d="M323.1,356.5v179.3"/>
		<path fill="none" stroke="#E52620" stroke-miterlimit="10" d="M298.9,448.5v-4.1"/>
		<path fill="none" stroke="#E52620" stroke-miterlimit="10" d="M285.4,448.5v-4.1"/>
		<path fill="none" stroke="#E52620" stroke-miterlimit="10" d="M285.4,444.4h13.6"/>
		<path fill="none" stroke="#E52620" stroke-miterlimit="10" stroke-dasharray="2,10" d="M383.4,356.5v179.3"/>
		<path fill="none" stroke="#E52620" stroke-miterlimit="10" d="M360,448.5v-4.1"/>
		<path fill="none" stroke="#E52620" stroke-miterlimit="10" d="M346.5,448.5v-4.1"/>
		<path fill="none" stroke="#E52620" stroke-miterlimit="10" d="M346.5,444.4H360"/>
		<path fill="none" stroke="#E52620" stroke-miterlimit="10" stroke-dasharray="2,10" d="M430.4,356.5v179.3"/>
		<path fill="none" stroke="#E52620" stroke-miterlimit="10" d="M413.7,448.5v-4.1"/>
		<path fill="none" stroke="#E52620" stroke-miterlimit="10" d="M400.1,448.5v-4.1"/>
		<path fill="none" stroke="#E52620" stroke-miterlimit="10" d="M400.1,444.4h13.6"/>
		<path fill="none" stroke="#E52620" stroke-miterlimit="10" stroke-dasharray="2,10" d="M467.4,356.5v179.3"/>
		<path fill="none" stroke="#E52620" stroke-miterlimit="10" stroke-dasharray="2,10" d="M535.2,356.5v179.3"/>
		<path fill="none" stroke="#E52620" stroke-miterlimit="10" d="M44.6,356.5h490.6l17,17v145.4l-17,17H44.6V356.5"/>
	</g>
</g>
</svg>
