<svg version="1.1" xmlns="http://www.w3.org/2000/svg" xmlns:xlink="http://www.w3.org/1999/xlink" width="5000" height="5000"><g fill="none" fill-rule="nonzero" stroke="#ff0000" stroke-width="1" stroke-linecap="butt" stroke-linejoin="miter" stroke-miterlimit="10" stroke-dasharray="none" stroke-dashoffset="0" font-family="none" font-weight="none" font-size="none" text-anchor="none" style="mix-blend-mode: normal"><path d="M223.77096,100l0,204.57996" stroke-dasharray="2,10"></path><path d="M171.88548,301.28984l0,-6" stroke-dasharray=""></path><path d="M151.88548,301.28984l0,-6" stroke-dasharray=""></path><path d="M151.88548,295.28984l20,0" stroke-dasharray=""></path><path d="M414.4951,100l0,204.57996" stroke-dasharray="2,10"></path><path d="M329.13303,301.28984l0,-6" stroke-dasharray=""></path><path d="M309.13303,301.28984l0,-6" stroke-dasharray=""></path><path d="M309.13303,295.28984l20,0" stroke-dasharray=""></path><path d="M493.87583,100l0,204.57996" stroke-dasharray="2,10"></path><path d="M464.18547,301.28984l0,-6" stroke-dasharray=""></path><path d="M444.18547,301.28984l0,-6" stroke-dasharray=""></path><path d="M444.18547,295.28984l20,0" stroke-dasharray=""></path><path d="M531.70175,100l0,204.57996" stroke-dasharray="2,10"></path><path d="M628.01893,100l0,204.57996" stroke-dasharray="2,10"></path><path d="M589.86034,301.28984l0,-6" stroke-dasharray=""></path><path d="M569.86034,301.28984l0,-6" stroke-dasharray=""></path><path d="M569.86034,295.28984l20,0" stroke-dasharray=""></path><path d="M658.5091,100l0,204.57996" stroke-dasharray="2,10"></path><path d="M747.87587,100l0,204.57996" stroke-dasharray="2,10"></path><path d="M713.19248,301.28984l0,-6" stroke-dasharray=""></path><path d="M693.19248,301.28984l0,-6" stroke-dasharray=""></path><path d="M693.19248,295.28984l20,0" stroke-dasharray=""></path><path d="M814.92943,100l0,204.57996" stroke-dasharray="2,10"></path><path d="M791.40265,301.28984l0,-6" stroke-dasharray=""></path><path d="M771.40265,301.28984l0,-6" stroke-dasharray=""></path><path d="M771.40265,295.28984l20,0" stroke-dasharray=""></path><path d="M914.92943,100l0,204.57996" stroke-dasharray="2,10"></path><path d="M100,100l814.92943,0l25,25l0,154.57996l-25,25l-814.92943,0l0,-204.57996" stroke-dasharray=""></path></g></svg>