<svg version="1.1" xmlns="http://www.w3.org/2000/svg" xmlns:xlink="http://www.w3.org/1999/xlink" width="5000" height="5000"><g fill="none" fill-rule="nonzero" stroke="#0000ff" stroke-width="1" stroke-linecap="butt" stroke-linejoin="miter" stroke-miterlimit="10" stroke-dasharray="none" stroke-dashoffset="0" font-family="none" font-weight="none" font-size="none" text-anchor="none" style="mix-blend-mode: normal"><path d="M252.34126,100l0,258.27307" stroke-dasharray="2,10"></path><path d="M186.17063,227.59246l0,-6" stroke-dasharray=""></path><path d="M166.17063,227.59246l0,-6" stroke-dasharray=""></path><path d="M166.17063,221.59246l20,0" stroke-dasharray=""></path><path d="M330.61163,100l0,258.27307" stroke-dasharray="2,10"></path><path d="M301.47644,227.59246l0,-6" stroke-dasharray=""></path><path d="M281.47644,227.59246l0,-6" stroke-dasharray=""></path><path d="M281.47644,221.59246l20,0" stroke-dasharray=""></path><path d="M401.39192,100l0,258.27307" stroke-dasharray="2,10"></path><path d="M376.00177,227.59246l0,-6" stroke-dasharray=""></path><path d="M356.00177,227.59246l0,-6" stroke-dasharray=""></path><path d="M356.00177,221.59246l20,0" stroke-dasharray=""></path><path d="M428.19211,100l0,258.27307" stroke-dasharray="2,10"></path><path d="M500.98675,100l0,258.27307" stroke-dasharray="2,10"></path><path d="M474.58943,227.59246l0,-6" stroke-dasharray=""></path><path d="M454.58943,227.59246l0,-6" stroke-dasharray=""></path><path d="M454.58943,221.59246l20,0" stroke-dasharray=""></path><path d="M721.4433,100l0,258.27307" stroke-dasharray="2,10"></path><path d="M621.21502,227.59246l0,-6" stroke-dasharray=""></path><path d="M601.21502,227.59246l0,-6" stroke-dasharray=""></path><path d="M601.21502,221.59246l20,0" stroke-dasharray=""></path><path d="M788.17118,100l0,258.27307" stroke-dasharray="2,10"></path><path d="M764.80724,227.59246l0,-6" stroke-dasharray=""></path><path d="M744.80724,227.59246l0,-6" stroke-dasharray=""></path><path d="M744.80724,221.59246l20,0" stroke-dasharray=""></path><path d="M823.77623,100l0,258.27307" stroke-dasharray="2,10"></path><path d="M872.65363,100l0,258.27307" stroke-dasharray="2,10"></path><path d="M974.10515,100l0,258.27307" stroke-dasharray="2,10"></path><path d="M933.37939,227.59246l0,-6" stroke-dasharray=""></path><path d="M913.37939,227.59246l0,-6" stroke-dasharray=""></path><path d="M913.37939,221.59246l20,0" stroke-dasharray=""></path><path d="M1102.2496,100l0,258.27307" stroke-dasharray="2,10"></path><path d="M1048.17737,227.59246l0,-6" stroke-dasharray=""></path><path d="M1028.17737,227.59246l0,-6" stroke-dasharray=""></path><path d="M1028.17737,221.59246l20,0" stroke-dasharray=""></path><path d="M1202.2496,100l0,258.27307" stroke-dasharray="2,10"></path><path d="M100,100l1102.2496,0l25,25l0,208.27307l-25,25l-1102.2496,0l0,-258.27307" stroke-dasharray=""></path></g></svg>