<svg version="1.1" xmlns="http://www.w3.org/2000/svg" xmlns:xlink="http://www.w3.org/1999/xlink" width="5000" height="5000"><g fill="none" fill-rule="nonzero" stroke="#ff0000" stroke-width="1" stroke-linecap="butt" stroke-linejoin="miter" stroke-miterlimit="10" stroke-dasharray="none" stroke-dashoffset="0" font-family="none" font-weight="none" font-size="none" text-anchor="none" style="mix-blend-mode: normal"><path d="M204.84584,100l0,216.93679" stroke-dasharray="2,10"></path><path d="M162.42292,293.54932l0,-6" stroke-dasharray=""></path><path d="M142.42292,293.54932l0,-6" stroke-dasharray=""></path><path d="M142.42292,287.54932l20,0" stroke-dasharray=""></path><path d="M300.92836,100l0,216.93679" stroke-dasharray="2,10"></path><path d="M262.8871,293.54932l0,-6" stroke-dasharray=""></path><path d="M242.8871,293.54932l0,-6" stroke-dasharray=""></path><path d="M242.8871,287.54932l20,0" stroke-dasharray=""></path><path d="M337.55144,100l0,216.93679" stroke-dasharray="2,10"></path><path d="M439.7396,100l0,216.93679" stroke-dasharray="2,10"></path><path d="M398.64552,293.54932l0,-6" stroke-dasharray=""></path><path d="M378.64552,293.54932l0,-6" stroke-dasharray=""></path><path d="M378.64552,287.54932l20,0" stroke-dasharray=""></path><path d="M499.79499,100l0,216.93679" stroke-dasharray="2,10"></path><path d="M479.76729,293.54932l0,-6" stroke-dasharray=""></path><path d="M459.76729,293.54932l0,-6" stroke-dasharray=""></path><path d="M459.76729,287.54932l20,0" stroke-dasharray=""></path><path d="M690.64807,100l0,216.93679" stroke-dasharray="2,10"></path><path d="M605.22153,293.54932l0,-6" stroke-dasharray=""></path><path d="M585.22153,293.54932l0,-6" stroke-dasharray=""></path><path d="M585.22153,287.54932l20,0" stroke-dasharray=""></path><path d="M790.64807,100l0,216.93679" stroke-dasharray="2,10"></path><path d="M100,100l690.64807,0l25,25l0,166.93679l-25,25l-690.64807,0l0,-216.93679" stroke-dasharray=""></path></g></svg>