<svg version="1.1" xmlns="http://www.w3.org/2000/svg" xmlns:xlink="http://www.w3.org/1999/xlink" width="5000" height="5000"><g fill="none" fill-rule="nonzero" stroke="#ff0000" stroke-width="1" stroke-linecap="butt" stroke-linejoin="miter" stroke-miterlimit="10" stroke-dasharray="none" stroke-dashoffset="0" font-family="none" font-weight="none" font-size="none" text-anchor="none" style="mix-blend-mode: normal"><path d="M199.64136,100l0,300.83243" stroke-dasharray="2,10"></path><path d="M159.82068,196.03567l0,-6" stroke-dasharray=""></path><path d="M139.82068,196.03567l0,-6" stroke-dasharray=""></path><path d="M139.82068,190.03567l20,0" stroke-dasharray=""></path><path d="M273.09188,100l0,300.83243" stroke-dasharray="2,10"></path><path d="M246.36662,196.03567l0,-6" stroke-dasharray=""></path><path d="M226.36662,196.03567l0,-6" stroke-dasharray=""></path><path d="M226.36662,190.03567l20,0" stroke-dasharray=""></path><path d="M361.81646,100l0,300.83243" stroke-dasharray="2,10"></path><path d="M327.45417,196.03567l0,-6" stroke-dasharray=""></path><path d="M307.45417,196.03567l0,-6" stroke-dasharray=""></path><path d="M307.45417,190.03567l20,0" stroke-dasharray=""></path><path d="M438.15701,100l0,300.83243" stroke-dasharray="2,10"></path><path d="M409.98673,196.03567l0,-6" stroke-dasharray=""></path><path d="M389.98673,196.03567l0,-6" stroke-dasharray=""></path><path d="M389.98673,190.03567l20,0" stroke-dasharray=""></path><path d="M516.20033,100l0,300.83243" stroke-dasharray="2,10"></path><path d="M487.17867,196.03567l0,-6" stroke-dasharray=""></path><path d="M467.17867,196.03567l0,-6" stroke-dasharray=""></path><path d="M467.17867,190.03567l20,0" stroke-dasharray=""></path><path d="M672.95712,100l0,300.83243" stroke-dasharray="2,10"></path><path d="M604.57873,196.03567l0,-6" stroke-dasharray=""></path><path d="M584.57873,196.03567l0,-6" stroke-dasharray=""></path><path d="M584.57873,190.03567l20,0" stroke-dasharray=""></path><path d="M745.79241,100l0,300.83243" stroke-dasharray="2,10"></path><path d="M719.37477,196.03567l0,-6" stroke-dasharray=""></path><path d="M699.37477,196.03567l0,-6" stroke-dasharray=""></path><path d="M699.37477,190.03567l20,0" stroke-dasharray=""></path><path d="M845.79241,100l0,300.83243" stroke-dasharray="2,10"></path><path d="M100,100l745.79241,0l25,25l0,250.83243l-25,25l-745.79241,0l0,-300.83243" stroke-dasharray=""></path></g></svg>