<svg version="1.1" xmlns="http://www.w3.org/2000/svg" xmlns:xlink="http://www.w3.org/1999/xlink" width="5000" height="5000"><g fill="none" fill-rule="nonzero" stroke="#0000ff" stroke-width="1" stroke-linecap="butt" stroke-linejoin="miter" stroke-miterlimit="10" stroke-dasharray="none" stroke-dashoffset="0" font-family="none" font-weight="none" font-size="none" text-anchor="none" style="mix-blend-mode: normal"><path d="M187.38335,100l0,211.34625" stroke-dasharray="2,10"></path><path d="M153.69168,276.99536l0,-6" stroke-dasharray=""></path><path d="M133.69168,276.99536l0,-6" stroke-dasharray=""></path><path d="M133.69168,270.99536l20,0" stroke-dasharray=""></path><path d="M222.97169,100l0,211.34625" stroke-dasharray="2,10"></path><path d="M274.17872,100l0,211.34625" stroke-dasharray="2,10"></path><path d="M303.06644,100l0,211.34625" stroke-dasharray="2,10"></path><path d="M340.761,100l0,211.34625" stroke-dasharray="2,10"></path><path d="M481.335,100l0,211.34625" stroke-dasharray="2,10"></path><path d="M421.048,276.99536l0,-6" stroke-dasharray=""></path><path d="M401.048,276.99536l0,-6" stroke-dasharray=""></path><path d="M401.048,270.99536l20,0" stroke-dasharray=""></path><path d="M632.57511,100l0,211.34625" stroke-dasharray="2,10"></path><path d="M566.95505,276.99536l0,-6" stroke-dasharray=""></path><path d="M546.95505,276.99536l0,-6" stroke-dasharray=""></path><path d="M546.95505,270.99536l20,0" stroke-dasharray=""></path><path d="M694.27535,100l0,211.34625" stroke-dasharray="2,10"></path><path d="M673.42523,276.99536l0,-6" stroke-dasharray=""></path><path d="M653.42523,276.99536l0,-6" stroke-dasharray=""></path><path d="M653.42523,270.99536l20,0" stroke-dasharray=""></path><path d="M738.54057,100l0,211.34625" stroke-dasharray="2,10"></path><path d="M848.75949,100l0,211.34625" stroke-dasharray="2,10"></path><path d="M803.65003,276.99536l0,-6" stroke-dasharray=""></path><path d="M783.65003,276.99536l0,-6" stroke-dasharray=""></path><path d="M783.65003,270.99536l20,0" stroke-dasharray=""></path><path d="M948.75949,100l0,211.34625" stroke-dasharray="2,10"></path><path d="M100,100l848.75949,0l25,25l0,161.34625l-25,25l-848.75949,0l0,-211.34625" stroke-dasharray=""></path></g></svg>