<svg version="1.1" xmlns="http://www.w3.org/2000/svg" xmlns:xlink="http://www.w3.org/1999/xlink" width="5000" height="5000"><g fill="none" fill-rule="nonzero" stroke="#ff0000" stroke-width="1" stroke-linecap="butt" stroke-linejoin="miter" stroke-miterlimit="10" stroke-dasharray="none" stroke-dashoffset="0" font-family="none" font-weight="none" font-size="none" text-anchor="none" style="mix-blend-mode: normal"><path d="M199.20529,100l0,206.42017" stroke-dasharray="2,10"></path><path d="M159.60265,292.27011l0,-6" stroke-dasharray=""></path><path d="M139.60265,292.27011l0,-6" stroke-dasharray=""></path><path d="M139.60265,286.27011l20,0" stroke-dasharray=""></path><path d="M295.28781,100l0,206.42017" stroke-dasharray="2,10"></path><path d="M257.24655,292.27011l0,-6" stroke-dasharray=""></path><path d="M237.24655,292.27011l0,-6" stroke-dasharray=""></path><path d="M237.24655,286.27011l20,0" stroke-dasharray=""></path><path d="M331.91089,100l0,206.42017" stroke-dasharray="2,10"></path><path d="M434.09905,100l0,206.42017" stroke-dasharray="2,10"></path><path d="M393.00497,292.27011l0,-6" stroke-dasharray=""></path><path d="M373.00497,292.27011l0,-6" stroke-dasharray=""></path><path d="M373.00497,286.27011l20,0" stroke-dasharray=""></path><path d="M482.53633,100l0,206.42017" stroke-dasharray="2,10"></path><path d="M632.18886,100l0,206.42017" stroke-dasharray="2,10"></path><path d="M567.36259,292.27011l0,-6" stroke-dasharray=""></path><path d="M547.36259,292.27011l0,-6" stroke-dasharray=""></path><path d="M547.36259,286.27011l20,0" stroke-dasharray=""></path><path d="M669.70912,100l0,206.42017" stroke-dasharray="2,10"></path><path d="M727.79182,100l0,206.42017" stroke-dasharray="2,10"></path><path d="M783.9758,100l0,206.42017" stroke-dasharray="2,10"></path><path d="M843.46984,100l0,206.42017" stroke-dasharray="2,10"></path><path d="M904.10852,100l0,206.42017" stroke-dasharray="2,10"></path><path d="M883.78918,292.27011l0,-6" stroke-dasharray=""></path><path d="M863.78918,292.27011l0,-6" stroke-dasharray=""></path><path d="M863.78918,286.27011l20,0" stroke-dasharray=""></path><path d="M932.40711,100l0,206.42017" stroke-dasharray="2,10"></path><path d="M1040.29079,100l0,206.42017" stroke-dasharray="2,10"></path><path d="M996.34895,292.27011l0,-6" stroke-dasharray=""></path><path d="M976.34895,292.27011l0,-6" stroke-dasharray=""></path><path d="M976.34895,286.27011l20,0" stroke-dasharray=""></path><path d="M1140.29079,100l0,206.42017" stroke-dasharray="2,10"></path><path d="M100,100l1040.29079,0l25,25l0,156.42017l-25,25l-1040.29079,0l0,-206.42017" stroke-dasharray=""></path></g></svg>