<svg version="1.1" xmlns="http://www.w3.org/2000/svg" xmlns:xlink="http://www.w3.org/1999/xlink" width="5000" height="5000"><g fill="none" fill-rule="nonzero" stroke="#ff0000" stroke-width="1" stroke-linecap="butt" stroke-linejoin="miter" stroke-miterlimit="10" stroke-dasharray="none" stroke-dashoffset="0" font-family="none" font-weight="none" font-size="none" text-anchor="none" style="mix-blend-mode: normal"><path d="M235.86041,100l0,264.47539" stroke-dasharray="2,10"></path><path d="M177.9302,235.53364l0,-6" stroke-dasharray=""></path><path d="M157.9302,235.53364l0,-6" stroke-dasharray=""></path><path d="M157.9302,229.53364l20,0" stroke-dasharray=""></path><path d="M297.79989,100l0,264.47539" stroke-dasharray="2,10"></path><path d="M276.83015,235.53364l0,-6" stroke-dasharray=""></path><path d="M256.83015,235.53364l0,-6" stroke-dasharray=""></path><path d="M256.83015,229.53364l20,0" stroke-dasharray=""></path><path d="M419.48843,100l0,264.47539" stroke-dasharray="2,10"></path><path d="M368.64416,235.53364l0,-6" stroke-dasharray=""></path><path d="M348.64416,235.53364l0,-6" stroke-dasharray=""></path><path d="M348.64416,229.53364l20,0" stroke-dasharray=""></path><path d="M510.67834,100l0,264.47539" stroke-dasharray="2,10"></path><path d="M475.08339,235.53364l0,-6" stroke-dasharray=""></path><path d="M455.08339,235.53364l0,-6" stroke-dasharray=""></path><path d="M455.08339,229.53364l20,0" stroke-dasharray=""></path><path d="M599.7308,100l0,264.47539" stroke-dasharray="2,10"></path><path d="M565.20457,235.53364l0,-6" stroke-dasharray=""></path><path d="M545.20457,235.53364l0,-6" stroke-dasharray=""></path><path d="M545.20457,229.53364l20,0" stroke-dasharray=""></path><path d="M668.95074,100l0,264.47539" stroke-dasharray="2,10"></path><path d="M644.34077,235.53364l0,-6" stroke-dasharray=""></path><path d="M624.34077,235.53364l0,-6" stroke-dasharray=""></path><path d="M624.34077,229.53364l20,0" stroke-dasharray=""></path><path d="M723.49842,100l0,264.47539" stroke-dasharray="2,10"></path><path d="M823.49842,100l0,264.47539" stroke-dasharray="2,10"></path><path d="M100,100l723.49842,0l25,25l0,214.47539l-25,25l-723.49842,0l0,-264.47539" stroke-dasharray=""></path></g></svg>