<svg version="1.1" xmlns="http://www.w3.org/2000/svg" xmlns:xlink="http://www.w3.org/1999/xlink" width="5000" height="5000"><g fill="none" fill-rule="nonzero" stroke="#ff0000" stroke-width="1" stroke-linecap="butt" stroke-linejoin="miter" stroke-miterlimit="10" stroke-dasharray="none" stroke-dashoffset="0" font-family="none" font-weight="none" font-size="none" text-anchor="none" style="mix-blend-mode: normal"><path d="M231.74312,100l0,260.60851" stroke-dasharray="2,10"></path><path d="M175.87156,220.70571l0,-6" stroke-dasharray=""></path><path d="M155.87156,220.70571l0,-6" stroke-dasharray=""></path><path d="M155.87156,214.70571l20,0" stroke-dasharray=""></path><path d="M356.82621,100l0,260.60851" stroke-dasharray="2,10"></path><path d="M304.28467,220.70571l0,-6" stroke-dasharray=""></path><path d="M284.28467,220.70571l0,-6" stroke-dasharray=""></path><path d="M284.28467,214.70571l20,0" stroke-dasharray=""></path><path d="M457.56637,100l0,260.60851" stroke-dasharray="2,10"></path><path d="M417.19629,220.70571l0,-6" stroke-dasharray=""></path><path d="M397.19629,220.70571l0,-6" stroke-dasharray=""></path><path d="M397.19629,214.70571l20,0" stroke-dasharray=""></path><path d="M508.54186,100l0,260.60851" stroke-dasharray="2,10"></path><path d="M629.70972,100l0,260.60851" stroke-dasharray="2,10"></path><path d="M579.12579,220.70571l0,-6" stroke-dasharray=""></path><path d="M559.12579,220.70571l0,-6" stroke-dasharray=""></path><path d="M559.12579,214.70571l20,0" stroke-dasharray=""></path><path d="M729.70972,100l0,260.60851" stroke-dasharray="2,10"></path><path d="M100,100l629.70972,0l25,25l0,210.60851l-25,25l-629.70972,0l0,-260.60851" stroke-dasharray=""></path></g></svg>