<svg version="1.1" xmlns="http://www.w3.org/2000/svg" xmlns:xlink="http://www.w3.org/1999/xlink" width="5000" height="5000"><g fill="none" fill-rule="nonzero" stroke="#0000ff" stroke-width="1" stroke-linecap="butt" stroke-linejoin="miter" stroke-miterlimit="10" stroke-dasharray="none" stroke-dashoffset="0" font-family="none" font-weight="none" font-size="none" text-anchor="none" style="mix-blend-mode: normal"><path d="M213.4101,100l0,221.67759" stroke-dasharray="2,10"></path><path d="M166.70505,275.78707l0,-6" stroke-dasharray=""></path><path d="M146.70505,275.78707l0,-6" stroke-dasharray=""></path><path d="M146.70505,269.78707l20,0" stroke-dasharray=""></path><path d="M288.20167,100l0,221.67759" stroke-dasharray="2,10"></path><path d="M260.80589,275.78707l0,-6" stroke-dasharray=""></path><path d="M240.80589,275.78707l0,-6" stroke-dasharray=""></path><path d="M240.80589,269.78707l20,0" stroke-dasharray=""></path><path d="M376.71348,100l0,221.67759" stroke-dasharray="2,10"></path><path d="M342.45758,275.78707l0,-6" stroke-dasharray=""></path><path d="M322.45758,275.78707l0,-6" stroke-dasharray=""></path><path d="M322.45758,269.78707l20,0" stroke-dasharray=""></path><path d="M448.3125,100l0,221.67759" stroke-dasharray="2,10"></path><path d="M422.51299,275.78707l0,-6" stroke-dasharray=""></path><path d="M402.51299,275.78707l0,-6" stroke-dasharray=""></path><path d="M402.51299,269.78707l20,0" stroke-dasharray=""></path><path d="M525.32711,100l0,221.67759" stroke-dasharray="2,10"></path><path d="M496.81981,275.78707l0,-6" stroke-dasharray=""></path><path d="M476.81981,275.78707l0,-6" stroke-dasharray=""></path><path d="M476.81981,269.78707l20,0" stroke-dasharray=""></path><path d="M592.05499,100l0,221.67759" stroke-dasharray="2,10"></path><path d="M568.69105,275.78707l0,-6" stroke-dasharray=""></path><path d="M548.69105,275.78707l0,-6" stroke-dasharray=""></path><path d="M548.69105,269.78707l20,0" stroke-dasharray=""></path><path d="M759.78454,100l0,221.67759" stroke-dasharray="2,10"></path><path d="M685.91976,275.78707l0,-6" stroke-dasharray=""></path><path d="M665.91976,275.78707l0,-6" stroke-dasharray=""></path><path d="M665.91976,269.78707l20,0" stroke-dasharray=""></path><path d="M913.64122,100l0,221.67759" stroke-dasharray="2,10"></path><path d="M846.71288,275.78707l0,-6" stroke-dasharray=""></path><path d="M826.71288,275.78707l0,-6" stroke-dasharray=""></path><path d="M826.71288,269.78707l20,0" stroke-dasharray=""></path><path d="M989.25815,100l0,221.67759" stroke-dasharray="2,10"></path><path d="M961.44969,275.78707l0,-6" stroke-dasharray=""></path><path d="M941.44969,275.78707l0,-6" stroke-dasharray=""></path><path d="M941.44969,269.78707l20,0" stroke-dasharray=""></path><path d="M1090.14963,100l0,221.67759" stroke-dasharray="2,10"></path><path d="M1049.70389,275.78707l0,-6" stroke-dasharray=""></path><path d="M1029.70389,275.78707l0,-6" stroke-dasharray=""></path><path d="M1029.70389,269.78707l20,0" stroke-dasharray=""></path><path d="M1149.2756,100l0,221.67759" stroke-dasharray="2,10"></path><path d="M1249.2756,100l0,221.67759" stroke-dasharray="2,10"></path><path d="M100,100l1149.2756,0l25,25l0,171.67759l-25,25l-1149.2756,0l0,-221.67759" stroke-dasharray=""></path></g></svg>