<svg version="1.1" xmlns="http://www.w3.org/2000/svg" xmlns:xlink="http://www.w3.org/1999/xlink" width="5000" height="5000"><g fill="none" fill-rule="nonzero" stroke="#ff0000" stroke-width="1" stroke-linecap="butt" stroke-linejoin="miter" stroke-miterlimit="10" stroke-dasharray="none" stroke-dashoffset="0" font-family="none" font-weight="none" font-size="none" text-anchor="none" style="mix-blend-mode: normal"><path d="M176.76542,100l0,277.83903" stroke-dasharray="2,10"></path><path d="M148.38271,202.2633l0,-6" stroke-dasharray=""></path><path d="M128.38271,202.2633l0,-6" stroke-dasharray=""></path><path d="M128.38271,196.2633l20,0" stroke-dasharray=""></path><path d="M308.50854,100l0,277.83903" stroke-dasharray="2,10"></path><path d="M252.63698,202.2633l0,-6" stroke-dasharray=""></path><path d="M232.63698,202.2633l0,-6" stroke-dasharray=""></path><path d="M232.63698,196.2633l20,0" stroke-dasharray=""></path><path d="M370.20879,100l0,277.83903" stroke-dasharray="2,10"></path><path d="M349.35866,202.2633l0,-6" stroke-dasharray=""></path><path d="M329.35866,202.2633l0,-6" stroke-dasharray=""></path><path d="M329.35866,196.2633l20,0" stroke-dasharray=""></path><path d="M441.83874,100l0,277.83903" stroke-dasharray="2,10"></path><path d="M416.02376,202.2633l0,-6" stroke-dasharray=""></path><path d="M396.02376,202.2633l0,-6" stroke-dasharray=""></path><path d="M396.02376,196.2633l20,0" stroke-dasharray=""></path><path d="M477.13661,100l0,277.83903" stroke-dasharray="2,10"></path><path d="M514.75589,100l0,277.83903" stroke-dasharray="2,10"></path><path d="M553.55589,100l0,277.83903" stroke-dasharray="2,10"></path><path d="M653.55589,100l0,277.83903" stroke-dasharray="2,10"></path><path d="M100,100l553.55589,0l25,25l0,227.83903l-25,25l-553.55589,0l0,-277.83903" stroke-dasharray=""></path></g></svg>