<svg version="1.1" xmlns="http://www.w3.org/2000/svg" xmlns:xlink="http://www.w3.org/1999/xlink" width="5000" height="5000"><g fill="none" fill-rule="nonzero" stroke="#ff0000" stroke-width="1" stroke-linecap="butt" stroke-linejoin="miter" stroke-miterlimit="10" stroke-dasharray="none" stroke-dashoffset="0" font-family="none" font-weight="none" font-size="none" text-anchor="none" style="mix-blend-mode: normal"><path d="M123.85624,100l0,217.19642" stroke-dasharray="2,10"></path><path d="M164.34735,100l0,217.19642" stroke-dasharray="2,10"></path><path d="M204.39457,100l0,217.19642" stroke-dasharray="2,10"></path><path d="M242.35376,100l0,217.19642" stroke-dasharray="2,10"></path><path d="M358.2217,100l0,217.19642" stroke-dasharray="2,10"></path><path d="M310.28773,297.34358l0,-6" stroke-dasharray=""></path><path d="M290.28773,297.34358l0,-6" stroke-dasharray=""></path><path d="M290.28773,291.34358l20,0" stroke-dasharray=""></path><path d="M466.65993,100l0,217.19642" stroke-dasharray="2,10"></path><path d="M422.44081,297.34358l0,-6" stroke-dasharray=""></path><path d="M402.44081,297.34358l0,-6" stroke-dasharray=""></path><path d="M402.44081,291.34358l20,0" stroke-dasharray=""></path><path d="M574.04545,100l0,217.19642" stroke-dasharray="2,10"></path><path d="M530.35269,297.34358l0,-6" stroke-dasharray=""></path><path d="M510.35269,297.34358l0,-6" stroke-dasharray=""></path><path d="M510.35269,291.34358l20,0" stroke-dasharray=""></path><path d="M619.00732,100l0,217.19642" stroke-dasharray="2,10"></path><path d="M719.00732,100l0,217.19642" stroke-dasharray="2,10"></path><path d="M100,100l619.00732,0l25,25l0,167.19642l-25,25l-619.00732,0l0,-217.19642" stroke-dasharray=""></path></g></svg>