<svg version="1.1" xmlns="http://www.w3.org/2000/svg" xmlns:xlink="http://www.w3.org/1999/xlink" width="5000" height="5000"><g fill="none" fill-rule="nonzero" stroke="#ff0000" stroke-width="1" stroke-linecap="butt" stroke-linejoin="miter" stroke-miterlimit="10" stroke-dasharray="none" stroke-dashoffset="0" font-family="none" font-weight="none" font-size="none" text-anchor="none" style="mix-blend-mode: normal"><path d="M142.60047,100l0,300.53498" stroke-dasharray="2,10"></path><path d="M255.84291,100l0,300.53498" stroke-dasharray="2,10"></path><path d="M209.22169,188.59378l0,-6" stroke-dasharray=""></path><path d="M189.22169,188.59378l0,-6" stroke-dasharray=""></path><path d="M189.22169,182.59378l20,0" stroke-dasharray=""></path><path d="M357.3632,100l0,300.53498" stroke-dasharray="2,10"></path><path d="M316.60306,188.59378l0,-6" stroke-dasharray=""></path><path d="M296.60306,188.59378l0,-6" stroke-dasharray=""></path><path d="M296.60306,182.59378l20,0" stroke-dasharray=""></path><path d="M453.68039,100l0,300.53498" stroke-dasharray="2,10"></path><path d="M415.52179,188.59378l0,-6" stroke-dasharray=""></path><path d="M395.52179,188.59378l0,-6" stroke-dasharray=""></path><path d="M395.52179,182.59378l20,0" stroke-dasharray=""></path><path d="M514.31049,100l0,300.53498" stroke-dasharray="2,10"></path><path d="M493.99544,188.59378l0,-6" stroke-dasharray=""></path><path d="M473.99544,188.59378l0,-6" stroke-dasharray=""></path><path d="M473.99544,182.59378l20,0" stroke-dasharray=""></path><path d="M637.53488,100l0,300.53498" stroke-dasharray="2,10"></path><path d="M585.92269,188.59378l0,-6" stroke-dasharray=""></path><path d="M565.92269,188.59378l0,-6" stroke-dasharray=""></path><path d="M565.92269,182.59378l20,0" stroke-dasharray=""></path><path d="M737.53488,100l0,300.53498" stroke-dasharray="2,10"></path><path d="M100,100l637.53488,0l25,25l0,250.53498l-25,25l-637.53488,0l0,-300.53498" stroke-dasharray=""></path></g></svg>