<svg version="1.1" xmlns="http://www.w3.org/2000/svg" xmlns:xlink="http://www.w3.org/1999/xlink" width="5000" height="5000"><g fill="none" fill-rule="nonzero" stroke="#0000ff" stroke-width="1" stroke-linecap="butt" stroke-linejoin="miter" stroke-miterlimit="10" stroke-dasharray="none" stroke-dashoffset="0" font-family="none" font-weight="none" font-size="none" text-anchor="none" style="mix-blend-mode: normal"><path d="M174.68768,100l0,228.31672" stroke-dasharray="2,10"></path><path d="M147.34384,265.05197l0,-6" stroke-dasharray=""></path><path d="M127.34384,265.05197l0,-6" stroke-dasharray=""></path><path d="M127.34384,259.05197l20,0" stroke-dasharray=""></path><path d="M196.22393,100l0,228.31672" stroke-dasharray="2,10"></path><path d="M309.52089,100l0,228.31672" stroke-dasharray="2,10"></path><path d="M262.87241,265.05197l0,-6" stroke-dasharray=""></path><path d="M242.87241,265.05197l0,-6" stroke-dasharray=""></path><path d="M242.87241,259.05197l20,0" stroke-dasharray=""></path><path d="M416.90641,100l0,228.31672" stroke-dasharray="2,10"></path><path d="M373.21365,265.05197l0,-6" stroke-dasharray=""></path><path d="M353.21365,265.05197l0,-6" stroke-dasharray=""></path><path d="M353.21365,259.05197l20,0" stroke-dasharray=""></path><path d="M461.86828,100l0,228.31672" stroke-dasharray="2,10"></path><path d="M509.67999,100l0,228.31672" stroke-dasharray="2,10"></path><path d="M659.33252,100l0,228.31672" stroke-dasharray="2,10"></path><path d="M594.50626,265.05197l0,-6" stroke-dasharray=""></path><path d="M574.50626,265.05197l0,-6" stroke-dasharray=""></path><path d="M574.50626,259.05197l20,0" stroke-dasharray=""></path><path d="M696.85279,100l0,228.31672" stroke-dasharray="2,10"></path><path d="M754.93549,100l0,228.31672" stroke-dasharray="2,10"></path><path d="M934.90562,100l0,228.31672" stroke-dasharray="2,10"></path><path d="M854.92055,265.05197l0,-6" stroke-dasharray=""></path><path d="M834.92055,265.05197l0,-6" stroke-dasharray=""></path><path d="M834.92055,259.05197l20,0" stroke-dasharray=""></path><path d="M1034.90562,100l0,228.31672" stroke-dasharray="2,10"></path><path d="M100,100l934.90562,0l25,25l0,178.31672l-25,25l-934.90562,0l0,-228.31672" stroke-dasharray=""></path></g></svg>