<svg version="1.1" xmlns="http://www.w3.org/2000/svg" xmlns:xlink="http://www.w3.org/1999/xlink" width="5000" height="5000"><g fill="none" fill-rule="nonzero" stroke="#0000ff" stroke-width="1" stroke-linecap="butt" stroke-linejoin="miter" stroke-miterlimit="10" stroke-dasharray="none" stroke-dashoffset="0" font-family="none" font-weight="none" font-size="none" text-anchor="none" style="mix-blend-mode: normal"><path d="M158.05825,100l0,230.03472" stroke-dasharray="2,10"></path><path d="M239.98071,100l0,230.03472" stroke-dasharray="2,10"></path><path d="M209.01948,280.55882l0,-6" stroke-dasharray=""></path><path d="M189.01948,280.55882l0,-6" stroke-dasharray=""></path><path d="M189.01948,274.55882l20,0" stroke-dasharray=""></path><path d="M281.87785,100l0,230.03472" stroke-dasharray="2,10"></path><path d="M320.74814,100l0,230.03472" stroke-dasharray="2,10"></path><path d="M360.83056,100l0,230.03472" stroke-dasharray="2,10"></path><path d="M434.28429,100l0,230.03472" stroke-dasharray="2,10"></path><path d="M407.55742,280.55882l0,-6" stroke-dasharray=""></path><path d="M387.55742,280.55882l0,-6" stroke-dasharray=""></path><path d="M387.55742,274.55882l20,0" stroke-dasharray=""></path><path d="M480.11582,100l0,230.03472" stroke-dasharray="2,10"></path><path d="M580.11582,100l0,230.03472" stroke-dasharray="2,10"></path><path d="M100,100l480.11582,0l25,25l0,180.03472l-25,25l-480.11582,0l0,-230.03472" stroke-dasharray=""></path></g></svg>